# xmcd CD database file
#
# Track frame offsets:
#	150
#	19597
#	30599
#	41218
#	55336
#	68537
#	79592
#	95302
#	115760
#	128887
#	144904
#	160109
#	172242
#
# Disc length: 2521 seconds
#
# Revision: 0
# Processed by: cddbd v1.5.2PL0 Copyright (c) Steve Scherf et al.
# Submitted via: CDex 1.51
#
DISCID=a209d70d
DTITLE=Various Artist - Country Kotlik
DYEAR=1900
DGENRE=Country
TTITLE0=Ascalona
TTITLE1=VEjplata
TTITLE2=U sklenicky whisky
TTITLE3=Davno jiz
TTITLE4=Whisky ma barvu tvych vlasu
TTITLE5=Zloukovicka polka
TTITLE6=Sosna
TTITLE7=Don Diego
TTITLE8=Zadny vikend vecne netrva
TTITLE9=Zlaty udoli
TTITLE10=Stare sedlo
TTITLE11=Ten chlap ma konskou naturu
TTITLE12=Udoli oddechu
EXTD=
EXTT0=
EXTT1=
EXTT2=
EXTT3=
EXTT4=
EXTT5=
EXTT6=
EXTT7=
EXTT8=
EXTT9=
EXTT10=
EXTT11=
EXTT12=
PLAYORDER=
